<svg width="780" height="113" viewBox="0 0 780 113" fill="none" xmlns="http://www.w3.org/2000/svg">
<rect width="289" height="113" fill="#A3A5F1"/>
<path d="M71.3106 46.426C69.6726 36.598 65.1366 29.416 53.1666 29.416C38.1726 29.416 33.1326 41.008 33.1326 57.892C33.1326 74.902 38.1726 86.494 53.1666 86.494C65.2626 86.494 69.7986 79.312 71.3106 69.232H93.9906C91.9746 90.4 78.8706 105.016 54.1746 105.016C25.6986 105.016 10.4526 85.108 10.4526 57.892C10.4526 30.802 25.6986 10.894 54.1746 10.894C78.7446 10.894 91.8486 25.51 93.9906 46.426H71.3106ZM142.912 105.016C114.31 105.016 98.3081 85.108 98.3081 57.892C98.3081 30.802 114.31 10.894 142.912 10.894C171.262 10.894 187.516 30.802 187.516 57.892C187.516 85.108 171.262 105.016 142.912 105.016ZM142.912 86.494C159.292 86.494 164.836 73.642 164.836 57.892C164.836 42.268 159.292 29.416 142.912 29.416C126.406 29.416 120.988 42.268 120.988 57.892C120.988 73.642 126.406 86.494 142.912 86.494ZM196.216 103V12.91H223.936L242.458 70.366H242.71L261.232 12.91H288.952V103H267.532V46.93H267.28L250.522 103H234.646L217.888 46.93H217.636V103H196.216ZM301.298 103V12.91H329.018L347.54 70.366H347.792L366.314 12.91H394.034V103H372.614V46.93H372.362L355.604 103H339.728L322.97 46.93H322.718V103H301.298ZM406.38 103V12.91H434.1L452.622 70.366H452.874L471.396 12.91H499.116V103H477.696V46.93H477.444L460.686 103H444.81L428.052 46.93H427.8V103H406.38ZM553.027 105.016C524.425 105.016 508.423 85.108 508.423 57.892C508.423 30.802 524.425 10.894 553.027 10.894C581.377 10.894 597.631 30.802 597.631 57.892C597.631 85.108 581.377 105.016 553.027 105.016ZM553.027 86.494C569.407 86.494 574.951 73.642 574.951 57.892C574.951 42.268 569.407 29.416 553.027 29.416C536.521 29.416 531.103 42.268 531.103 57.892C531.103 73.642 536.521 86.494 553.027 86.494ZM606.331 103V12.91H629.011L660.511 66.46H660.763V12.91H683.443V103H660.763L629.263 49.45H629.011V103H606.331ZM695.786 103V12.91H718.466L749.966 66.46H750.218V12.91H772.898V103H750.218L718.718 49.45H718.466V103H695.786Z" fill="#18171A"/>
</svg>
